<svg xmlns="http://www.w3.org/2000/svg" viewBox="0 0 640 420" width="640" height="420">
  <style>
    text { font-family: 'Source Sans 3', sans-serif; }
    .mono { font-family: 'Source Code Pro', monospace; font-size: 11px; }
  </style>
  <rect width="640" height="420" fill="#f8fafc" rx="4"/>
  <text x="320" y="26" text-anchor="middle" fill="#0f172a" font-size="16" font-weight="bold">eepromValues_t Configuration Structure</text>
  <!-- Root -->
  <rect x="20" y="42" width="180" height="30" rx="5" fill="#dbeafe" stroke="#1e40af" stroke-width="2"/>
  <text x="110" y="62" text-anchor="middle" class="mono" fill="#1e40af" font-weight="bold">eepromValues_t</text>
  <!-- Trunk -->
  <line x1="40" y1="72" x2="40" y2="388" stroke="#64748b" stroke-width="1.5"/>
  <!-- System settings -->
  <circle cx="40" cy="95" r="3" fill="#64748b"/>
  <line x1="40" y1="95" x2="70" y2="95" stroke="#64748b" stroke-width="1.5"/>
  <rect x="70" y="80" width="170" height="28" rx="5" fill="white" stroke="#334155" stroke-width="1.5"/>
  <text x="155" y="99" text-anchor="middle" class="mono" fill="#0f172a">System settings</text>
  <line x1="240" y1="95" x2="260" y2="95" stroke="#64748b" stroke-width="1"/>
  <line x1="260" y1="80" x2="260" y2="145" stroke="#64748b" stroke-width="1"/>
  <line x1="260" y1="80" x2="280" y2="80" stroke="#64748b" stroke-width="1"/>
  <text x="290" y="84" fill="#64748b" font-size="10">lcdSleep (display timeout)</text>
  <line x1="260" y1="98" x2="280" y2="98" stroke="#64748b" stroke-width="1"/>
  <text x="290" y="102" fill="#64748b" font-size="10">warmupState (enable warmup mode)</text>
  <line x1="260" y1="116" x2="280" y2="116" stroke="#64748b" stroke-width="1"/>
  <text x="290" y="120" fill="#64748b" font-size="10">brewDeltaState (temp compensation)</text>
  <line x1="260" y1="134" x2="280" y2="134" stroke="#64748b" stroke-width="1"/>
  <text x="290" y="138" fill="#64748b" font-size="10">scalesF1/F2 (scale calibration)</text>
  <!-- Boiler PID tuning -->
  <circle cx="40" cy="170" r="3" fill="#64748b"/>
  <line x1="40" y1="170" x2="70" y2="170" stroke="#64748b" stroke-width="1.5"/>
  <rect x="70" y="155" width="170" height="28" rx="5" fill="white" stroke="#334155" stroke-width="1.5"/>
  <text x="155" y="174" text-anchor="middle" class="mono" fill="#0f172a">Boiler PID tuning</text>
  <line x1="240" y1="170" x2="260" y2="170" stroke="#64748b" stroke-width="1"/>
  <line x1="260" y1="158" x2="260" y2="210" stroke="#64748b" stroke-width="1"/>
  <line x1="260" y1="158" x2="280" y2="158" stroke="#64748b" stroke-width="1"/>
  <text x="290" y="162" fill="#64748b" font-size="10">steamSetPoint, offsetTemp</text>
  <line x1="260" y1="176" x2="280" y2="176" stroke="#64748b" stroke-width="1"/>
  <text x="290" y="180" fill="#64748b" font-size="10">hpwr, mainDivider, brewDivider</text>
  <line x1="260" y1="194" x2="280" y2="194" stroke="#64748b" stroke-width="1"/>
  <text x="290" y="198" fill="#64748b" font-size="10">kProportional, kIntegral, kDerivative</text>
  <!-- Profile settings -->
  <circle cx="40" cy="240" r="3" fill="#64748b"/>
  <line x1="40" y1="240" x2="70" y2="240" stroke="#64748b" stroke-width="1.5"/>
  <rect x="70" y="225" width="200" height="28" rx="5" fill="#dbeafe" stroke="#1e40af" stroke-width="1.5"/>
  <text x="170" y="244" text-anchor="middle" class="mono" fill="#1e40af">Profile settings (×5)</text>
  <line x1="270" y1="240" x2="290" y2="240" stroke="#64748b" stroke-width="1"/>
  <line x1="290" y1="228" x2="290" y2="360" stroke="#64748b" stroke-width="1"/>
  <line x1="290" y1="228" x2="310" y2="228" stroke="#64748b" stroke-width="1"/>
  <text x="320" y="232" fill="#64748b" font-size="10">preinfusionState, preinfusionBar</text>
  <line x1="290" y1="246" x2="310" y2="246" stroke="#64748b" stroke-width="1"/>
  <text x="320" y="250" fill="#64748b" font-size="10">soakState, soakTimePressure/Flow</text>
  <line x1="290" y1="264" x2="310" y2="264" stroke="#64748b" stroke-width="1"/>
  <text x="320" y="268" fill="#64748b" font-size="10">hotWaterFlowState</text>
  <line x1="290" y1="282" x2="310" y2="282" stroke="#64748b" stroke-width="1"/>
  <text x="320" y="286" fill="#64748b" font-size="10">preinfusionFlowVol, FlowPressureTarget</text>
  <line x1="290" y1="300" x2="310" y2="300" stroke="#64748b" stroke-width="1"/>
  <text x="320" y="304" fill="#64748b" font-size="10">tfProfile (Start/End/Hold/Steep)</text>
  <line x1="290" y1="318" x2="310" y2="318" stroke="#64748b" stroke-width="1"/>
  <text x="320" y="322" fill="#64748b" font-size="10">profilingState (enable multi-phase)</text>
  <line x1="290" y1="336" x2="310" y2="336" stroke="#64748b" stroke-width="1"/>
  <text x="320" y="340" fill="#64748b" font-size="10">phases[] (array of phase configs)</text>
  <line x1="290" y1="354" x2="310" y2="354" stroke="#64748b" stroke-width="1"/>
  <text x="320" y="358" fill="#64748b" font-size="10">globalStopConditions (time/weight/vol)</text>
  <!-- Versioning -->
  <circle cx="40" cy="388" r="3" fill="#64748b"/>
  <line x1="40" y1="388" x2="70" y2="388" stroke="#64748b" stroke-width="1.5"/>
  <rect x="70" y="373" width="170" height="28" rx="5" fill="white" stroke="#334155" stroke-width="1.5"/>
  <text x="155" y="392" text-anchor="middle" class="mono" fill="#0f172a">Versioning</text>
  <line x1="240" y1="388" x2="260" y2="388" stroke="#64748b" stroke-width="1"/>
  <line x1="260" y1="378" x2="260" y2="408" stroke="#64748b" stroke-width="1"/>
  <line x1="260" y1="378" x2="280" y2="378" stroke="#64748b" stroke-width="1"/>
  <text x="290" y="382" fill="#64748b" font-size="10">versionId (schema version)</text>
  <line x1="260" y1="396" x2="280" y2="396" stroke="#64748b" stroke-width="1"/>
  <text x="290" y="400" fill="#64748b" font-size="10">EEPROM_DATA_VERSION (compile-time)</text>
</svg>
