<svg xmlns="http://www.w3.org/2000/svg" viewBox="0 0 700 520" width="700" height="520">
  <style>
    text { font-family: 'Source Sans 3', sans-serif; }
    .mono { font-family: 'Source Code Pro', monospace; font-size: 12px; }
    .label { font-size: 11px; fill: #64748b; }
    .dir { font-size: 13px; fill: #1e40af; font-weight: bold; }
    .file { font-size: 12px; fill: #0f172a; }
  </style>
  <rect width="700" height="520" fill="#f8fafc" rx="4"/>
  <text x="350" y="26" text-anchor="middle" fill="#0f172a" font-size="16" font-weight="bold">Proposed Repository Structure</text>
  <!-- Root -->
  <rect x="20" y="42" width="160" height="28" rx="5" fill="#dbeafe" stroke="#1e40af" stroke-width="2"/>
  <text x="100" y="61" text-anchor="middle" class="mono dir">gaggiuino/</text>
  <!-- Trunk -->
  <line x1="40" y1="70" x2="40" y2="490" stroke="#64748b" stroke-width="1.5"/>
  <!-- firmware/ -->
  <circle cx="40" cy="95" r="3" fill="#64748b"/>
  <line x1="40" y1="95" x2="70" y2="95" stroke="#64748b" stroke-width="1.5"/>
  <rect x="70" y="80" width="130" height="28" rx="4" fill="#dbeafe" stroke="#1e40af" stroke-width="1.5"/>
  <text x="135" y="99" text-anchor="middle" class="mono dir">firmware/</text>
  <text x="220" y="99" class="label">ESP32-S3 firmware (PlatformIO)</text>
  <line x1="135" y1="108" x2="135" y2="173" stroke="#64748b" stroke-width="1"/>
  <line x1="135" y1="118" x2="155" y2="118" stroke="#64748b" stroke-width="1"/>
  <text x="165" y="122" class="mono file">src/</text>
  <line x1="135" y1="136" x2="155" y2="136" stroke="#64748b" stroke-width="1"/>
  <text x="165" y="140" class="mono file">lib/</text>
  <line x1="135" y1="154" x2="155" y2="154" stroke="#64748b" stroke-width="1"/>
  <text x="165" y="158" class="mono file">test/</text>
  <line x1="135" y1="172" x2="155" y2="172" stroke="#64748b" stroke-width="1"/>
  <text x="165" y="176" class="mono file">platformio.ini</text>
  <!-- webapp/ -->
  <circle cx="40" cy="205" r="3" fill="#64748b"/>
  <line x1="40" y1="205" x2="70" y2="205" stroke="#64748b" stroke-width="1.5"/>
  <rect x="70" y="190" width="130" height="28" rx="4" fill="#dbeafe" stroke="#1e40af" stroke-width="1.5"/>
  <text x="135" y="209" text-anchor="middle" class="mono dir">webapp/</text>
  <text x="220" y="209" class="label">Web app (output → firmware/data/)</text>
  <line x1="135" y1="218" x2="135" y2="268" stroke="#64748b" stroke-width="1"/>
  <line x1="135" y1="228" x2="155" y2="228" stroke="#64748b" stroke-width="1"/>
  <text x="165" y="232" class="mono file">src/</text>
  <line x1="135" y1="246" x2="155" y2="246" stroke="#64748b" stroke-width="1"/>
  <text x="165" y="250" class="mono file">package.json</text>
  <line x1="135" y1="264" x2="155" y2="264" stroke="#64748b" stroke-width="1"/>
  <text x="165" y="268" class="mono file">vite.config.js</text>
  <!-- docs/ -->
  <circle cx="40" cy="295" r="3" fill="#64748b"/>
  <line x1="40" y1="295" x2="70" y2="295" stroke="#64748b" stroke-width="1.5"/>
  <rect x="70" y="280" width="130" height="28" rx="4" fill="#dbeafe" stroke="#1e40af" stroke-width="1.5"/>
  <text x="135" y="299" text-anchor="middle" class="mono dir">docs/</text>
  <line x1="135" y1="308" x2="135" y2="376" stroke="#64748b" stroke-width="1"/>
  <line x1="135" y1="318" x2="155" y2="318" stroke="#64748b" stroke-width="1"/>
  <text x="165" y="322" class="mono file">icd-01 through icd-07</text>
  <text x="350" y="322" class="label">Interface Control Documents</text>
  <line x1="135" y1="336" x2="155" y2="336" stroke="#64748b" stroke-width="1"/>
  <text x="165" y="340" class="mono file">safety-fmea.md</text>
  <line x1="135" y1="354" x2="155" y2="354" stroke="#64748b" stroke-width="1"/>
  <text x="165" y="358" class="mono file">getting-started.md</text>
  <text x="350" y="358" class="label">Assembly + wiring guide</text>
  <!-- profiles/ -->
  <circle cx="40" cy="390" r="3" fill="#64748b"/>
  <line x1="40" y1="390" x2="70" y2="390" stroke="#64748b" stroke-width="1.5"/>
  <rect x="70" y="375" width="130" height="28" rx="4" fill="#dbeafe" stroke="#1e40af" stroke-width="1.5"/>
  <text x="135" y="394" text-anchor="middle" class="mono dir">profiles/</text>
  <text x="220" y="394" class="label">Community-shared JSON profiles</text>
  <line x1="135" y1="403" x2="135" y2="424" stroke="#64748b" stroke-width="1"/>
  <line x1="135" y1="415" x2="155" y2="415" stroke="#64748b" stroke-width="1"/>
  <text x="165" y="419" class="mono file">classic-9-bar.json, turbo-blooming.json, ...</text>
  <!-- hardware/ -->
  <circle cx="40" cy="440" r="3" fill="#64748b"/>
  <line x1="40" y1="440" x2="70" y2="440" stroke="#64748b" stroke-width="1.5"/>
  <rect x="70" y="425" width="130" height="28" rx="4" fill="#dbeafe" stroke="#1e40af" stroke-width="1.5"/>
  <text x="135" y="444" text-anchor="middle" class="mono dir">hardware/</text>
  <text x="220" y="444" class="label">PCB designs (KiCad), enclosure STLs</text>
  <line x1="135" y1="453" x2="135" y2="472" stroke="#64748b" stroke-width="1"/>
  <line x1="135" y1="465" x2="155" y2="465" stroke="#64748b" stroke-width="1"/>
  <text x="165" y="469" class="mono file">pcb/, enclosure/</text>
  <!-- Root files -->
  <circle cx="40" cy="490" r="3" fill="#64748b"/>
  <line x1="40" y1="490" x2="70" y2="490" stroke="#64748b" stroke-width="1.5"/>
  <text x="75" y="494" class="mono file">DESIGN_DOCUMENT.md, CONTRIBUTING.md, LICENSE</text>
</svg>
